<?xml version="1.0" encoding="UTF-8"?><svg id="uuid-bcee54a7-660a-4e9e-b7f2-11a497a77562" xmlns="http://www.w3.org/2000/svg" viewBox="0 0 108.9 75.2"><defs><style>.uuid-6f11eb27-1a12-4d7f-8051-ab4877bdf418{fill:#df6d13;}</style></defs><path class="uuid-6f11eb27-1a12-4d7f-8051-ab4877bdf418" d="m54.39,0C18.2,0,0,11.56,0,37.61c0,24.56,16.18,36.33,48.35,37.59v-17.5c-1.59-1.04-2.66-2.79-2.8-4.79-3.77-.74-6.79-1.97-9-3.73-3.8-3.03-5.7-7.24-5.7-12.63v-4.32h-.68c-1.72,0-3.12-1.4-3.12-3.12s1.4-3.12,3.12-3.12h49.47c1.72,0,3.12,1.4,3.12,3.12s-1.4,3.12-3.12,3.12h-.68v4.32c0,5.39-1.9,9.6-5.7,12.63-2.2,1.75-5.22,2.98-9,3.72-.14,2.01-1.2,3.76-2.8,4.8v17.45c31.5-1.48,47.44-13.25,47.44-37.55C108.9,11.55,90.59,0,54.4,0h-.01Z"/></svg>